<svg xmlns="http://www.w3.org/2000/svg" viewBox="0 0 120 120" enable-background="new 0 0 120 120"><path fill-rule="evenodd" clip-rule="evenodd" fill="#F6F7F7" d="M0 0h120v120h-120z"/><path fill="#D6D6D6" d="M90.5 82.1c0 3.5-1.1 6.2-3.2 8.2-2.1 2-4.9 3-8.4 3h-37.8c-3.5 0-6.3-1-8.4-3-2.1-2-3.2-4.7-3.2-8.2 0-1.5.1-3 .2-4.5s.3-3 .6-4.7c.3-1.7.7-3.3 1.1-4.7.5-1.4 1.1-2.9 1.9-4.2.8-1.4 1.7-2.5 2.7-3.5s2.2-1.7 3.7-2.3c1.5-.6 3.1-.9 4.8-.9.3 0 .9.3 1.8.9s2 1.3 3.2 2.1c1.2.8 2.8 1.5 4.7 2.1 1.9.6 3.8.9 5.8.9s3.9-.3 5.8-.9c1.9-.6 3.5-1.3 4.7-2.1 1.2-.8 2.3-1.5 3.2-2.1s1.6-.9 1.8-.9c1.8 0 3.4.3 4.8.9 1.5.6 2.7 1.4 3.7 2.3s1.9 2.1 2.7 3.5c.8 1.4 1.4 2.8 1.9 4.2.5 1.4.8 3 1.1 4.7.3 1.7.5 3.3.6 4.7.1 1.4.2 2.9.2 4.5zm-13.9-38.7c0 4.6-1.6 8.5-4.9 11.8-3.2 3.2-7.1 4.8-11.7 4.8s-8.5-1.6-11.8-4.9c-3.2-3.2-4.9-7.2-4.9-11.8 0-4.6 1.6-8.5 4.9-11.8 3.2-3.2 7.2-4.9 11.8-4.9 4.6 0 8.5 1.6 11.8 4.9s4.8 7.3 4.8 11.9z"/></svg>