<?xml version="1.0" encoding="UTF-8"?>
<svg width="266px" height="207px" viewBox="0 0 266 207" version="1.1" xmlns="http://www.w3.org/2000/svg" xmlns:xlink="http://www.w3.org/1999/xlink">
    <!-- Generator: sketchtool 64 (101010) - https://sketch.com -->
    <title>B434FA8B-8093-4B49-B0A8-39F98BD46A4F</title>
    <desc>Created with sketchtool.</desc>
    <g id="Page-1" stroke="none" stroke-width="1" fill="none" fill-rule="evenodd">
        <g id="Onboarding-01" transform="translate(-44.000000, -124.000000)">
            <g id="Group-2" transform="translate(26.000000, 109.000000)">
                <g id="Group" transform="translate(0.000000, 32.729583)">
                    <g id="Head" transform="translate(38.319734, 0.000000)">
                        <g transform="translate(27.963049, 16.064129)" fill="#B28B67">
                            <path d="M19.7519282,4.73318302 C22.7526796,10.3302995 22.3961124,24.5278495 18.5179085,25.5282104 C16.9713206,25.927144 13.6766673,24.9499469 10.323442,22.9274326 L12.4280218,37.828432 L0,37.828432 L4.27838641,17.8725846 C1.892309,15.0698043 0.277373879,11.6349745 0.547234971,7.78615563 C1.32479099,-3.30352099 16.7511768,-0.86393343 19.7519282,4.73318302 Z"></path>
                        </g>
                        <path d="M38.3197338,15.0277333 C44.9837796,15.0277333 47.5105507,17.7774029 47.6407502,20.2097103 C44.7850771,20.9950931 39.795173,21.2975194 32.6235572,21.2461057 L32.6235572,21.7643034 L38.8375681,22.2825011 L39.8732365,25.3916872 C38.2250011,25.2685558 37.0473284,26.4002885 36.1075903,27.915215 C35.7021183,27.6342753 35.2165201,27.464478 34.6948941,27.464478 C33.2649344,27.464478 32.1057229,28.7405056 32.1057229,30.0554665 C32.1057229,31.4233387 32.7511595,32.4810062 33.6729058,32.9297914 C33.1809456,33.8929195 32.6857948,34.5922489 32.1057229,34.7192458 C29.8677156,34.4926942 26.9273805,28.9260651 26.9273805,24.3552918 C26.9273805,19.3523566 30.9053743,15.0277333 38.3197338,15.0277333 Z" id="Combined-Shape" fill="#191847"></path>
                    </g>
                    <g id="Bottom" transform="translate(0.000000, 97.421167)">
                        <path d="M144.99359,11.8488783 C144.978887,22.8168291 134.976955,74.885788 134.454741,78.1731641 C133.932527,81.4605402 128.338304,82.5359827 128.012534,78.4284207 C127.494179,71.892596 126.53114,49.2353724 127.4947,38.6946849 C127.77618,35.6154815 128.072989,32.6391372 128.371921,29.8508157 C123.115828,39.3006882 115.122284,52.6579579 104.391824,69.9223732 L98.4281578,67.1958226 C103.11124,51.7555645 106.951297,40.8551532 109.948328,34.4945885 C115.079974,23.6037577 119.891731,14.277213 121.916845,10.9920133 C124.592189,6.65198837 128.931714,7.2287154 131.988632,9.37793051 C135.705559,4.33114117 144.999187,7.6715492 144.99359,11.8488783 Z" id="Skin" fill="#B28B67"></path>
                        <path d="M108.139855,63.910136 L110.778258,11.3127096 C112.686364,2.21820332 128.854542,6.44281229 128.848994,11.3167857 C128.836393,22.3822141 122.201613,60.6057421 122.197859,63.9025029 L108.139855,63.910136 Z" id="Leg-Back" fill="#1F28CF" transform="translate(118.494424, 34.935842) rotate(20.000000) translate(-118.494424, -34.935842) "></path>
                        <path d="M145.511422,15.6374195 C145.511422,29.3909974 139.487073,61.7204522 139.482934,64.7490282 L124.889268,64.2565147 C127.440261,36.1480135 128.516038,21.9985307 128.116601,21.8080664 C127.217867,21.3795217 91.2745672,26.7862452 80.4945869,27.1945104 C64.9498019,27.7832308 58.5192356,18.2399461 57.997435,0.129837791 L88.108277,0.129837791 C113.855721,3.20540045 130.778003,5.34450562 138.875124,6.5471533 C144.074899,7.3194644 145.511422,11.8486629 145.511422,15.6374195 Z" id="Leg-Front" fill="#2B44FF"></path>
                        <g id="Left-Shoe" transform="translate(112.443957, 66.627996) rotate(14.000000) translate(-112.443957, -66.627996) translate(96.443957, 56.127996)" fill="#E4E4E4">
                            <path d="M1.43138205,13.0449388 C0.822350177,14.6519327 0.517834241,15.8493147 0.517834241,16.6370847 C0.517834241,17.5715435 0.673399002,18.9351512 0.984528525,20.727908 C2.06780594,20.727908 11.8034025,20.727908 30.1913181,20.727908 C30.950299,18.2169848 30.5121712,16.8614181 28.8769347,16.6612081 C27.2416982,16.460998 25.8832794,16.2802243 24.8016784,16.118887 L11.1733915,10.0390645 C10.9408868,9.93533997 10.6683192,10.0397369 10.5645946,10.2722417 C10.5627884,10.2762905 10.5610406,10.2803652 10.5593519,10.2844644 L9.66445078,12.4567965 L9.66445078,12.4567965 C8.15064944,13.1635959 6.92052869,13.5169956 5.97408852,13.5169956 C5.18523691,13.5169956 4.08805131,13.1899331 2.68253172,12.5358081 L2.68253859,12.5357933 C2.22089173,12.3209441 1.67248332,12.5210131 1.45763412,12.98266 C1.44812522,13.0030918 1.43936865,13.0238653 1.43138205,13.0449388 Z" id="shoe"></path>
                        </g>
                        <g id="Right-Shoe" transform="translate(125.833721, 57.519945)" fill="#E4E4E4">
                            <path d="M1.43138205,13.0449388 C0.822350177,14.6519327 0.517834241,15.8493147 0.517834241,16.6370847 C0.517834241,17.5715435 0.673399002,18.9351512 0.984528525,20.727908 C2.06780594,20.727908 11.8034025,20.727908 30.1913181,20.727908 C30.950299,18.2169848 30.5121712,16.8614181 28.8769347,16.6612081 C27.2416982,16.460998 25.8832794,16.2802243 24.8016784,16.118887 L11.1733915,10.0390645 C10.9408868,9.93533997 10.6683192,10.0397369 10.5645946,10.2722417 C10.5627884,10.2762905 10.5610406,10.2803652 10.5593519,10.2844644 L9.66445078,12.4567965 L9.66445078,12.4567965 C8.15064944,13.1635959 6.92052869,13.5169956 5.97408852,13.5169956 C5.18523691,13.5169956 4.08805131,13.1899331 2.68253172,12.5358081 L2.68253859,12.5357933 C2.22089173,12.3209441 1.67248332,12.5210131 1.45763412,12.98266 C1.44812522,13.0030918 1.43936865,13.0238653 1.43138205,13.0449388 Z" id="shoe"></path>
                        </g>
                        <rect id="Base" fill="#2F3676" x="126.869389" y="78.2478525" width="27.4452148" height="3.62738389" rx="1.81369195"></rect>
                        <path d="M55.8753902,3.10918619 L112.420738,3.10918619 C114.96666,3.10918619 117.030538,5.17306412 117.030538,7.71898656 L117.030538,33.6828504 L117.030538,33.6828504 L53.10951,33.6828504 C52.091141,33.6828504 51.2655898,32.8572993 51.2655898,31.8389303 L51.2655898,7.71898656 C51.2655898,5.17306412 53.3294678,3.10918619 55.8753902,3.10918619 Z" id="Seat" fill="#2F3676"></path>
                        <path d="M111.852196,3.10918619 L113.470521,3.10918619 C115.728379,3.10918619 117.653942,4.74456721 118.019501,6.97263561 L129.45856,76.6932594 L129.45856,76.6932594 L123.925131,76.6932594" id="Wheel-Stuff" fill="#2F3676"></path>
                        <ellipse id="Front-Wheel" fill="#191847" cx="126.869389" cy="77.7296548" rx="9.32101633" ry="9.32755858"></ellipse>
                        <g id="Wheel" transform="translate(18.642033, 7.254768)" fill="#191847">
                            <path d="M39.3554023,0 C61.0907908,0 78.7108046,17.6323809 78.7108046,39.3830251 C78.7108046,61.1336693 61.0907908,78.7660502 39.3554023,78.7660502 C17.6200138,78.7660502 0,61.1336693 0,39.3830251 C0,17.6323809 17.6200138,0 39.3554023,0 Z M39.3554023,7.25476778 C21.6239011,7.25476778 7.24967937,21.6390786 7.24967937,39.3830251 C7.24967937,57.1269717 21.6239011,71.5112824 39.3554023,71.5112824 C57.0869035,71.5112824 71.4611252,57.1269717 71.4611252,39.3830251 C71.4611252,21.6390786 57.0869035,7.25476778 39.3554023,7.25476778 Z"></path>
                            <rect id="Wheel-Stuff" x="37.2840653" y="5.18197699" width="4.14267393" height="68.4020963"></rect>
                            <path d="M38.1933043,5.19356763 L40.493512,5.19437458 C41.0024437,5.19520023 41.4149699,5.60772641 41.4157955,6.11665804 L41.4391369,72.650846 C41.4399621,73.1600303 41.0273314,73.5729506 40.5181469,73.5731293 C40.5179313,73.5731293 40.5177157,73.5731293 40.5175003,73.5724826 L38.2172926,73.5716756 C37.7083609,73.57085 37.2958347,73.1583238 37.2950091,72.6493922 L37.2716677,6.11520421 C37.2708425,5.60601998 37.6834732,5.19309961 38.1926577,5.19292098 C38.1928733,5.1929209 38.1930889,5.1929209 38.1933043,5.19356763 Z" id="Wheel-Stuff" transform="translate(39.355402, 39.383025) rotate(45.000000) translate(-39.355402, -39.383025) "></path>
                            <path d="M38.2045716,5.20596522 L40.506233,5.20596522 C41.0154175,5.20596522 41.4281931,5.61874081 41.4281931,6.1279253 L41.4281931,72.6381249 C41.4281931,73.1473094 41.0154175,73.560085 40.506233,73.560085 L38.2045716,73.560085 C37.6953871,73.560085 37.2826115,73.1473094 37.2826115,72.6381249 L37.2826115,6.1279253 C37.2826115,5.61874081 37.6953871,5.20596522 38.2045716,5.20596522 Z" id="Wheel-Stuff" transform="translate(39.355402, 39.383025) rotate(90.000000) translate(-39.355402, -39.383025) "></path>
                            <path d="M38.2172926,5.19437458 L40.5175003,5.19356763 C41.0266845,5.19274235 41.4396049,5.6053731 41.4397835,6.11455755 C41.4397836,6.11477318 41.4397836,6.11498881 41.4391369,6.11520421 L41.4157955,72.6493922 C41.4149699,73.1583238 41.0024437,73.57085 40.493512,73.5716756 L38.1933043,73.5724826 C37.6841201,73.5733079 37.2711997,73.1606771 37.2710211,72.6514927 C37.271021,72.6512771 37.271021,72.6510614 37.2716677,72.650846 L37.2950091,6.11665804 C37.2958347,5.60772641 37.7083609,5.19520023 38.2172926,5.19437458 Z" id="Wheel-Stuff" transform="translate(39.355402, 39.383025) rotate(135.000000) translate(-39.355402, -39.383025) "></path>
                        </g>
                    </g>
                    <g id="Body/Long-Sleeve-1" transform="translate(10.356685, 42.492211)">
                        <path d="M35.1970856,38.5796546 L46.5363048,38.6222399 C34.1025432,66.6224342 27.619387,81.282892 27.0868362,82.6036135 C25.888597,85.5752368 28.4242323,90.1009677 29.5085705,92.5330617 C25.9769169,94.1144806 26.3532184,88.2578406 21.8981324,90.3319598 C17.8317365,92.2251195 14.7384392,95.6553983 10.0403063,92.7544714 C9.46269849,92.3978195 8.82973441,91.0549607 10.3590557,90.0055875 C14.1691526,87.3912162 19.6597331,82.8155955 20.401597,81.3094945 C21.413261,79.2556568 26.3450905,65.0123768 35.1970856,38.5796546 L35.1970856,38.5796546 Z M131.371002,28.6642077 C129.080081,30.575395 126.755619,32.6895673 127.163792,33.7095346 C127.571964,34.7295019 129.702491,34.3500058 130.055436,35.9188022 C130.290732,36.9646665 126.833016,37.134609 119.682287,36.4286298 L103.092447,43.010409 L99.4241742,33.843901 L119.869759,31.0530825 C123.959706,28.7765683 127.722258,27.235408 131.157416,26.4296016 C132.124106,26.4013574 133.661922,26.7530204 131.371002,28.6642077 Z" id="Skin" fill="#997659"></path>
                        <path d="M63.9371572,5.00896902 L72.8331954,4.8247922 C76.7367211,24.3546749 89.6911567,35.7728789 115.886433,29.2318782 L121.637445,54.3186603 C97.0900849,59.7018729 74.4453249,51.6597225 67.6265256,25.1179429 C65.8613539,18.2471146 64.3144139,11.0713051 63.9371572,5.00896902 Z" id="Clothes-Back" fill="#AFB9C5" transform="translate(92.787301, 30.361808) rotate(5.000000) translate(-92.787301, -30.361808) "></path>
                        <path d="M61.8693614,0 L61.8760188,0.008 L75.3281065,3.09119259 C75.3281065,25.9082789 82.486065,40.5856584 86.311734,57.299417 L86.4783182,58.0381423 L50.1489744,58.0379775 C49.6372035,63.9200389 49.3229304,69.9657336 49.1591646,76.1750617 L49.1591646,76.1750617 L21.9570188,76.1750617 C28.1211776,43.3544733 41.1316314,17.962786 60.98838,0 L60.98838,0 L61.8693614,0 Z" id="Clothes" fill="#C5CFD6"></path>
                        <path d="M55.880589,25.0105195 C54.9445927,39.4364862 55.4952798,50.4456938 57.5326504,58.0381423 L57.5326504,58.0381423 L50.1490069,58.0376046 C51.1454586,46.5850444 52.8906166,35.7528088 55.7313214,25.5408977 Z" id="Shade" fill-opacity="0.1" fill="#000000"></path>
                    </g>
                </g>
                <g id="Head" transform="translate(225.414701, 27.500000) scale(-1, 1) translate(-225.414701, -27.500000) translate(189.914701, 0.000000)">
                    <g transform="translate(28.004537, 16.076679)" fill="#B28B67">
                        <path d="M19.7812338,4.73688082 C22.7864373,10.33837 22.429341,24.5470119 18.5453832,25.5481543 C16.9965006,25.9473996 13.6969591,24.9694391 10.3387587,22.9453446 L12.446461,37.8579855 L0,37.8579855 L4.28473416,17.8865476 C1.89511658,15.0815775 0.277785413,11.6440643 0.548046892,7.79223856 C1.32675655,-3.30610187 16.7760302,-0.864608378 19.7812338,4.73688082 Z"></path>
                    </g>
                    <path d="M41.0380866,15.3613035 C44.5303056,15.6608444 47.6486897,16.7257167 48.5324648,17.3581181 C48.5324648,20.6643256 47.8918401,21.6452677 42.4200312,21.5588013 C41.0755816,22.2688307 40.042022,23.4914767 38.9655104,25.0943981 C39.4416445,31.7308811 40.7019606,35.0495939 42.7462249,35.0495939 C45.8126213,35.0495939 48.4142408,33.1029418 49.7597019,33.1029418 C50.7404974,33.1029418 50.5215159,34.3303164 49.8713934,35.2403275 C49.3350213,35.991116 46.7229345,36.7147863 46.7229345,37.8787604 C46.7229345,39.0427346 48.7866997,38.1422319 48.7866997,38.8325623 C48.7866997,39.9744529 49.1494034,42.1214115 47.1675359,42.1214115 C45.1618199,42.1214115 39.4110769,41.3904901 38.4255553,38.4136536 C37.7896154,36.4927529 37.3784038,32.5125683 37.1919206,26.4731001 C37.0702784,26.4561734 36.9463987,26.4487296 36.8207804,26.4487296 C35.1022828,26.4487296 33.7091652,27.8418472 33.7091652,29.5603448 C33.7091652,30.4327475 34.0681895,31.2212955 34.646547,31.7862979 C33.9265615,32.8025526 33.1196642,33.8641667 32.1950461,34.9596145 C28.7214561,32.8756019 26.1438549,26.7749157 29.5398528,20.9143476 C30.4785174,18.0433464 32.6035225,16.5098368 35.1132047,15.797779 C37.1461766,14.9473804 39.2565939,14.8514972 41.0380866,15.3613035 Z" id="Hair" fill="#191847"></path>
                </g>
                <g id="Bottom" transform="translate(229.473684, 160.227768) scale(-1, 1) translate(-229.473684, -160.227768) translate(151.473684, 97.727768)">
                    <polygon id="Leg" fill="#997659" points="66.2827828 5.1612481e-14 85.7693191 63.8303085 95.2090833 118.113874 102.61051 118.113874 92.6358717 5.1612481e-14"></polygon>
                    <path d="M59.3115571,0 C60.6351298,35.0462701 59.0774635,53.1237709 58.7812321,56.3078769 C58.4850007,59.491983 54.428623,80.1378969 44.8256413,119.182778 L52.7124147,116.468826 C67.8890319,80.6588918 73.0606819,62.0478364 74.8013251,57.3455642 C76.5419682,52.643292 81.1650298,33.5281039 88.67051,0 L59.3115571,0 Z" id="Leg" fill="#B28B67"></path>
                    <g id="Left-Shoe" transform="translate(43.498076, 103.249884)" fill="#E4E4E4">
                        <path d="M1.43145431,13.0610086 C0.822374263,14.6701017 0.517834241,15.8690399 0.517834241,16.6578231 C0.517834241,17.5934467 0.673399002,18.9587542 0.984528525,20.7537456 C2.06780594,20.7537456 11.8034025,20.7537456 30.1913181,20.7537456 C30.950299,18.2396925 30.5121712,16.8824361 28.8769347,16.6819765 C27.2416982,16.4815168 25.8832794,16.3005178 24.8016784,16.1389794 L11.173693,10.051713 C10.9412364,9.94788068 10.6686204,10.0521513 10.5647881,10.2846078 C10.5629234,10.2887824 10.561121,10.2929845 10.5593813,10.2972127 L9.66445078,12.472324 L9.66445078,12.472324 C8.15064944,13.1800045 6.92052869,13.5338447 5.97408852,13.5338447 C5.18534089,13.5338447 4.08834055,13.2064608 2.68308749,12.5516931 L2.68308356,12.5517015 C2.2215459,12.3366513 1.67306304,12.5364688 1.45801282,12.9980065 C1.44838406,13.0186716 1.43952513,13.0396868 1.43145431,13.0610086 Z" id="shoe"></path>
                    </g>
                    <g id="Right-Shoe" transform="translate(92.174495, 103.249884)" fill="#E4E4E4">
                        <path d="M1.43145431,13.0610086 C0.822374263,14.6701017 0.517834241,15.8690399 0.517834241,16.6578231 C0.517834241,17.5934467 0.673399002,18.9587542 0.984528525,20.7537456 C2.06780594,20.7537456 11.8034025,20.7537456 30.1913181,20.7537456 C30.950299,18.2396925 30.5121712,16.8824361 28.8769347,16.6819765 C27.2416982,16.4815168 25.8832794,16.3005178 24.8016784,16.1389794 L11.173693,10.051713 C10.9412364,9.94788068 10.6686204,10.0521513 10.5647881,10.2846078 C10.5629234,10.2887824 10.561121,10.2929845 10.5593813,10.2972127 L9.66445078,12.472324 L9.66445078,12.472324 C8.15064944,13.1800045 6.92052869,13.5338447 5.97408852,13.5338447 C5.18534089,13.5338447 4.08834055,13.2064608 2.68308749,12.5516931 L2.68308356,12.5517015 C2.2215459,12.3366513 1.67306304,12.5364688 1.45801282,12.9980065 C1.44838406,13.0186716 1.43952513,13.0396868 1.43145431,13.0610086 Z" id="shoe"></path>
                    </g>
                    <polygon fill="#69A1AC" points="63.6936116 0 71.9789595 32.5208703 97.2856834 32.5208703 93.5123478 0"></polygon>
                    <path d="M59.0331034,-1.84330289e-15 C56.3069336,8.18763596 55.7890993,19.0279261 57.4796007,32.5208703 L83.3041589,32.5208703 L90.4053424,-1.84330289e-15 L59.0331034,-1.84330289e-15 Z" fill="#89C5CC"></path>
                </g>
                <g id="Body" transform="translate(229.002873, 91.386743) scale(-1, 1) rotate(8.000000) translate(-229.002873, -91.386743) translate(162.502873, 42.886743)">
                    <path d="M35.424665,48.1543621 L46.2621055,48.1969047 C39.5704861,69.760097 35.9580059,81.2013918 35.424665,82.520789 C34.2246481,85.4894328 36.7640454,90.0106258 37.8499925,92.4402812 C34.313099,94.0201145 34.6899588,88.1693468 30.2282629,90.2413863 C26.1558337,92.1326478 23.057947,95.5594871 18.3528436,92.6614689 C17.7743788,92.3051746 17.1404756,90.9636622 18.6720658,89.9153412 C22.4878157,87.3035913 27.9865425,82.7325585 28.7295071,81.2279676 C29.742672,79.1761892 31.9743913,68.151654 35.424665,48.1543621 L35.424665,48.1543621 Z M100.631924,46.1367738 L115.322847,60.4428205 C119.597364,62.2628788 123.099722,64.2725907 125.829921,66.4719563 C126.443901,67.2112379 127.112319,68.6277396 124.22357,67.9938754 C121.334821,67.3600111 118.267733,66.8229672 117.724797,67.7607351 C117.181862,68.698503 118.781665,70.1354965 117.778254,71.3627934 C117.109313,72.1809912 114.859612,69.578464 111.029151,63.5552115 L95.7525336,54.5645504 L100.631924,46.1367738 Z" id="Skin" fill="#B28B67"></path>
                    <path d="M63.2846897,4.78269087 L67.6851267,3.62696595 C77.0544363,22.1333679 92.0073551,38.3853821 112.543883,52.3830084 L99.5982728,71.213182 C78.4827227,50.5715322 64.656098,28.5786991 63.2846897,4.78269087 Z" id="Coat-Back" fill="#191847" transform="translate(87.914286, 37.420074) rotate(5.000000) translate(-87.914286, -37.420074) "></path>
                    <path d="M46.6742287,59.0153052 L86.6066243,59.0153052 C77.3552059,36.5610929 72.7294967,17.486506 72.7294967,1.79154434 L60.6838656,0 C51.2171314,15.1982047 48.5437008,33.910272 46.6742287,59.0153052 Z" id="Shirt" fill="#DDE3E9"></path>
                    <path d="M61.2198642,-2.20699455e-14 C62.1607274,0.0323409751 63.5937829,0.0906096633 65.5190306,0.174806065 L65.5190306,0.174806065 L68.4296873,8.47795241 C68.7375702,18.601429 70.5355598,39.0029658 73.8236561,69.6825629 L73.8236561,69.6825629 L47.647166,69.6824605 C47.7157872,71.8014072 47.8289341,73.940148 47.9866067,76.098683 L47.9866067,76.098683 L28.5231397,76.098683 C31.4345311,43.3110029 42.0665682,17.9447752 60.4192511,6.35176396e-15 L60.4192511,6.35176396e-15 L60.4281397,0.008 L60.4335749,-2.20699455e-14 Z" id="Coat-Front" fill="#2F3676"></path>
                    <path d="M54.9718693,69.8865456 L47.6539066,69.8864202 C47.333567,60.3842764 47.9075502,51.2797077 49.3758562,42.5727142 C50.1215533,55.7802226 51.9866927,64.8845599 54.9718693,69.8865456 Z" id="Shade" fill-opacity="0.1" fill="#000000"></path>
                    <polygon id="Light" fill-opacity="0.2" fill="#FFFFFF" points="53.4735742 53.838524 66.3811252 47.8486112 66.3811252 53.838524"></polygon>
                </g>
            </g>
        </g>
    </g>
</svg>