<?xml version="1.0" encoding="UTF-8"?>
<svg width="309px" height="204px" viewBox="0 0 309 204" version="1.1" xmlns="http://www.w3.org/2000/svg" xmlns:xlink="http://www.w3.org/1999/xlink">
    <!-- Generator: sketchtool 64 (101010) - https://sketch.com -->
    <title>7EB7FE4C-316E-4292-BA31-C025282BEAED</title>
    <desc>Created with sketchtool.</desc>
    <g id="Page-1" stroke="none" stroke-width="1" fill="none" fill-rule="evenodd">
        <g id="Onboarding-02" transform="translate(-25.000000, -130.000000)">
            <g id="Group" transform="translate(25.000000, 109.000000)">
                <g id="Humaaan">
                    <g id="Head" transform="translate(114.649612, 42.156202) rotate(32.000000) translate(-114.649612, -42.156202) translate(79.149612, 15.156202)">
                        <g transform="translate(27.826816, 15.974653)" fill="#B28B67">
                            <path d="M19.6556986,4.70681975 C22.6418306,10.2727609 22.2870005,24.3912323 18.4276909,25.3860212 C16.8887599,25.7827014 13.6105561,24.8111329 10.2739413,22.8002081 L12.3674736,37.6177321 L0,37.6177321 L4.25786725,17.7734176 C1.88323638,14.9861787 0.276010296,11.5703435 0.544568891,7.74278766 C1.31833672,-3.28512077 16.6695666,-0.859121422 19.6556986,4.70681975 Z"></path>
                        </g>
                        <path d="M43.8014689,10.306228 C46.6474552,10.306228 48.9545829,12.6133557 48.9545829,15.459342 C48.9545829,18.2113106 46.7973701,20.4594351 44.081694,20.6049662 C42.5283586,21.0842096 40.5310628,21.4364698 38.3159874,21.5849485 C38.5314866,22.3928231 38.6483549,23.3113088 38.6483549,24.3492686 C38.6483549,25.2656787 38.5471949,26.2375884 38.3609268,27.224426 C37.8812327,26.6535613 37.2389818,26.2808813 36.5871093,26.2808813 C34.7641612,26.2808813 33.4952409,27.7805144 33.4952409,29.3727497 C33.4952409,31.3933751 34.6616516,32.8551969 36.3644354,32.9723395 C34.8317375,35.9156523 32.7104123,38.1330435 30.5911202,38.1330435 C26.5661694,38.1330435 23.7043243,32.7517906 23.7043243,26.9660232 C23.7043243,26.7631027 23.7083379,26.5615297 23.7162571,26.3614593 C19.4587223,29.2819288 16.1773661,35.0411751 10.5436554,35.0411751 C2.87916287,35.0411751 -0.164726632,19.5818332 10.5436554,19.5818332 C17.826515,19.5818332 21.4087343,20.6437235 24.496012,22.2139827 C25.1038292,20.4988553 26.0312445,19.0565617 27.1652833,18.0487852 C27.4403234,17.7384491 27.8650209,17.440649 28.4140305,17.1649162 C28.7344538,16.9901078 29.0655347,16.8474483 29.4055555,16.7389327 C31.2681197,16.0521089 33.9725149,15.5667561 36.9945161,15.4612254 C37.5571078,15.4415793 38.1096371,15.4358326 38.6486493,15.4430791 C38.6575834,12.6041386 40.9611733,10.306228 43.8014689,10.306228 Z" id="hair" fill="#191847"></path>
                    </g>
                    <g id="Bottom" transform="translate(0.000000, 98.001034)">
                        <path d="M51.1953626,53.5459027 C63.5573471,57.003565 74.2228937,58.7323961 83.1920024,58.7323961 C92.1611111,58.7323961 100.492034,56.0700268 108.184771,50.745288 C96.0874447,47.1963124 86.1247576,45.4218246 78.2967098,45.4218246 C70.468662,45.4218246 61.4348796,48.1298506 51.1953626,53.5459027 Z" id="Skirt-Shadow" fill="#1F28CF"></path>
                        <path d="M93.8935551,63.7162189 C93.7743561,63.5370234 93.6736922,63.3420946 93.5938478,63.1309407 C91.9414531,58.7610674 65.474157,11.6188581 62.8373678,3 L92.6358098,3 C94.6405978,9.55303953 103.663953,50.6764867 104.933836,58.8812206 C108.940551,71.8232997 117.189977,113.737969 118.243084,116.641689 C119.350935,119.696354 113.117427,122.878524 111.456343,119.123193 C108.813279,113.147827 102.515649,96.6140976 99.7115753,86.5187176 C97.0827621,77.0543206 94.9422062,68.5396232 93.8935551,63.7162189 Z" id="Leg" fill="#997659"></path>
                        <path d="M69.5142896,69.4718701 C57.4138769,72.5301806 13.1531188,78.0590649 10.1157518,78.9262564 C6.99124869,79.8183258 4.25165735,73.378025 8.1137119,71.9829467 C14.2588928,69.7631415 31.1916476,64.6341868 41.458038,62.5411617 C49.7157008,60.857659 57.2509194,59.483923 62.3098667,58.6794784 C61.8812845,44.4688811 59.9221254,10.3656269 61.2062462,3 L87.572315,3 C86.3409295,10.063141 75.9314884,61.6000342 73.9967452,66.7587315 C73.3827525,68.6004211 71.5507265,69.4143119 69.5142896,69.4718701 L69.5142896,69.4718701 Z" id="Leg" fill="#B28B67"></path>
                        <g id="Left-Shoe" transform="translate(13.483444, 84.216241) rotate(80.000000) translate(-13.483444, -84.216241) translate(-2.516556, 73.716241)" fill="#E4E4E4">
                            <path d="M1.38007094,13.0899035 C0.803564578,14.6288729 0.515311399,15.7803778 0.515311399,16.5444181 C0.515311399,17.4736721 0.670118263,18.8296847 0.979731991,20.6124559 C2.05773177,20.6124559 11.7458974,20.6124559 30.0442287,20.6124559 C30.799512,18.1155183 30.3635187,16.767502 28.7362489,16.5684071 C27.108979,16.3693122 25.7571784,16.1895454 24.6808468,16.0291067 L11.1719473,10.006772 C10.9120092,9.8908903 10.6073471,10.0076711 10.4914654,10.2676092 C10.489483,10.272056 10.4875637,10.2765307 10.4857081,10.2810319 L9.61736644,12.3874136 L9.61736644,12.3874136 C8.11094021,13.0902762 6.88681249,13.4417075 5.94498329,13.4417075 C5.17977518,13.4417075 4.1230185,13.1326669 2.77471323,12.5145857 L2.77473064,12.5145477 C2.25728817,12.2773451 1.64552748,12.5045244 1.4083249,13.0219669 C1.39810134,13.044269 1.38867735,13.0669289 1.38007094,13.0899035 Z" id="shoe"></path>
                        </g>
                        <g id="Right-Shoe" transform="translate(108.184771, 105.546968)" fill="#E4E4E4">
                            <path d="M1.38007094,13.0899035 C0.803564578,14.6288729 0.515311399,15.7803778 0.515311399,16.5444181 C0.515311399,17.4736721 0.670118263,18.8296847 0.979731991,20.6124559 C2.05773177,20.6124559 11.7458974,20.6124559 30.0442287,20.6124559 C30.799512,18.1155183 30.3635187,16.767502 28.7362489,16.5684071 C27.108979,16.3693122 25.7571784,16.1895454 24.6808468,16.0291067 L11.1719473,10.006772 C10.9120092,9.8908903 10.6073471,10.0076711 10.4914654,10.2676092 C10.489483,10.272056 10.4875637,10.2765307 10.4857081,10.2810319 L9.61736644,12.3874136 L9.61736644,12.3874136 C8.11094021,13.0902762 6.88681249,13.4417075 5.94498329,13.4417075 C5.17977518,13.4417075 4.1230185,13.1326669 2.77471323,12.5145857 L2.77473064,12.5145477 C2.25728817,12.2773451 1.64552748,12.5045244 1.4083249,13.0219669 C1.39810134,13.044269 1.38867735,13.0669289 1.38007094,13.0899035 Z" id="shoe"></path>
                        </g>
                        <path d="M61.2914337,3 C72.910077,-0.324139372 83.9033869,-0.324139372 94.2713632,3 C97.878543,19.4577414 106.643444,25.9898317 108.184771,51.2222871 C90.6641834,59.927854 69.0211046,45.0135739 50.9852057,53.5032539 C45.8320917,41.6283131 53.0464513,13.0302881 61.2914337,3 Z" id="Skirt" fill="#2B44FF"></path>
                    </g>
                    <g id="Body" transform="translate(86.980380, 102.085624) rotate(21.000000) translate(-86.980380, -102.085624) translate(20.980380, 53.585624)">
                        <path d="M35.199854,47.9342104 L45.9685181,47.9765585 C39.3193649,69.4411683 35.7298102,80.8301559 35.199854,82.1435211 C34.0074525,85.0985928 36.5307343,89.5991159 37.6097898,92.0176634 C34.0953421,93.5902741 34.4698103,87.7662548 30.036429,89.8288214 C25.9898442,91.7114365 22.9116173,95.122609 18.2363732,92.2378399 C17.6615795,91.8831745 17.0316991,90.5477952 18.5535696,89.504267 C22.3451041,86.9044575 27.808935,82.3543224 28.5471846,80.8566102 C29.5539198,78.8142121 31.7714763,67.8400788 35.199854,47.9342104 L35.199854,47.9342104 Z M99.9932961,45.925846 L114.590988,60.1664884 C118.838378,61.9782259 122.31851,63.9787498 125.031382,66.1680603 C125.641466,66.903962 126.305643,68.3139878 123.435226,67.6830215 C120.564809,67.0520551 117.517185,66.5174665 116.977695,67.4509471 C116.438206,68.3844277 118.027856,69.8148516 117.030812,71.0365375 C116.366117,71.8509947 114.130693,69.2603657 110.32454,63.2646503 L95.1448714,54.3150926 L99.9932961,45.925846 Z" id="Skin" fill="#B28B67"></path>
                        <path d="M62.8777766,4.75735474 L67.2501688,3.60760705 C76.5629966,22.0305956 91.4237268,38.2103935 111.832359,52.1470007 L98.971631,70.8888386 C77.9866192,50.3385832 64.2441661,28.4444631 62.8777766,4.75735474 Z" id="Coat-Back" fill="#191847" transform="translate(87.355068, 37.248223) rotate(5.000000) translate(-87.355068, -37.248223) "></path>
                        <path d="M46.3780259,58.7454995 L86.0570036,58.7454995 C76.8642963,36.3939432 72.2679427,17.4065613 72.2679427,1.78335377 L60.2987552,0 C50.8920986,15.1287217 48.235634,33.7552412 46.3780259,58.7454995 Z" id="Shirt" fill="#DDE3E9"></path>
                        <path d="M60.8313523,-2.19690463e-14 C61.7662446,0.0321931189 63.1902056,0.0901954147 65.1032354,0.174006887 L65.1032354,0.174006887 L67.9954206,8.43919297 C68.3013496,18.5163871 70.0879289,38.8246523 73.3551583,69.3639887 L73.3551583,69.3639887 L47.3447643,69.3631269 C47.4129475,71.4726348 47.5253845,73.601851 47.6820754,75.7507756 L47.6820754,75.7507756 L28.3421269,75.7507756 C31.2350421,43.1129939 41.7996064,17.8627354 60.03582,6.45266317e-15 L60.03582,6.45266317e-15 L60.0441269,0.008 L60.0500529,-2.19690463e-14 Z" id="Coat-Front" fill="#2F3676"></path>
                        <path d="M54.6230083,69.5670388 L47.3514799,69.5667134 C47.0331494,60.1069362 47.6036693,51.043007 49.0630395,42.3749257 C49.8032476,55.524104 51.6565956,64.5876181 54.6230083,69.5670388 Z" id="Shade" fill-opacity="0.1" fill="#000000"></path>
                        <polygon id="Light" fill-opacity="0.2" fill="#FFFFFF" points="53.1342215 53.5923855 65.959859 47.6298573 65.959859 53.5923855"></polygon>
                    </g>
                </g>
                <g id="Humaaan" transform="translate(141.203438, 7.942693)">
                    <g id="Head" transform="translate(60.022092, 33.790850) scale(-1, 1) rotate(12.000000) translate(-60.022092, -33.790850) translate(24.522092, 6.790850)">
                        <g transform="translate(27.826816, 15.974653)" fill="#B28B67">
                            <path d="M19.6556986,4.70681975 C22.6418306,10.2727609 22.2870005,24.3912323 18.4276909,25.3860212 C16.8887599,25.7827014 13.6105561,24.8111329 10.2739413,22.8002081 L12.3674736,37.6177321 L0,37.6177321 L4.25786725,17.7734176 C1.88323638,14.9861787 0.276010296,11.5703435 0.544568891,7.74278766 C1.31833672,-3.28512077 16.6695666,-0.859121422 19.6556986,4.70681975 Z"></path>
                        </g>
                        <path d="M31.1341554,36.2302665 C29.5819157,29.3245469 25.1598382,24.6171492 25.8351955,21.5305878 C26.2854338,19.4728802 27.4854535,18.1932641 29.4352549,17.6917395 C30.4436737,13.6122087 33.6960312,11.8770252 39.1923275,12.4861891 C47.436772,13.399935 52.468722,16.8237622 50.2956715,24.3576763 C48.298127,24.3576763 45.886664,23.6352657 42.5521118,24.8729877 C41.4940719,25.2657118 40.7373307,26.483584 40.2818883,28.526604 L38.7750173,28.526604 C37.3125356,26.1020978 35.8705193,25.2111579 34.4489683,25.8537843 C33.0274173,26.4964108 32.7042756,28.0573531 33.4795433,30.5366113 L32.737257,36.2302665 L31.1341554,36.2302665 Z" id="Hair" fill="#191847"></path>
                    </g>
                    <g id="Bottom" transform="translate(86.930270, 154.240740) scale(-1, 1) translate(-86.930270, -154.240740) translate(5.930270, 92.240740)">
                        <polygon id="Leg" fill="#997659" points="67.9904818 0 106.281423 64.0155423 134.988613 118.135287 141.171887 118.135287 93.072588 2.62313032e-13"></polygon>
                        <g id="Right-Shoe" transform="translate(129.827850, 102.546968)" fill="#E4E4E4">
                            <path d="M1.38007094,13.0899035 C0.803564578,14.6288729 0.515311399,15.7803778 0.515311399,16.5444181 C0.515311399,17.4736721 0.670118263,18.8296847 0.979731991,20.6124559 C2.05773177,20.6124559 11.7458974,20.6124559 30.0442287,20.6124559 C30.799512,18.1155183 30.3635187,16.767502 28.7362489,16.5684071 C27.108979,16.3693122 25.7571784,16.1895454 24.6808468,16.0291067 L11.1719473,10.006772 C10.9120092,9.8908903 10.6073471,10.0076711 10.4914654,10.2676092 C10.489483,10.272056 10.4875637,10.2765307 10.4857081,10.2810319 L9.61736644,12.3874136 L9.61736644,12.3874136 C8.11094021,13.0902762 6.88681249,13.4417075 5.94498329,13.4417075 C5.17977518,13.4417075 4.1230185,13.1326669 2.77471323,12.5145857 L2.77473064,12.5145477 C2.25728817,12.2773451 1.64552748,12.5045244 1.4083249,13.0219669 C1.39810134,13.044269 1.38867735,13.0669289 1.38007094,13.0899035 Z" id="shoe"></path>
                        </g>
                        <path d="M127.015825,109.469089 L138.940159,105.861909 C133.715783,90.243844 127.312569,73.0567358 119.730515,54.3005846 C112.148462,35.5444334 104.005619,17.4442385 95.301986,2.84217094e-14 L61.6233319,2.84217094e-14 C71.2999003,22.0661607 81.5583605,42.1161003 92.3987123,60.1498187 C103.239064,78.1835371 114.778102,94.6232939 127.015825,109.469089 Z" id="Pant" fill="#DB2721"></path>
                        <path d="M65.4740246,2.84217094e-14 C61.8600789,22.4955011 54.8897671,51.2361079 54.2319576,52.1230515 C53.7934179,52.7143473 38.0058778,58.0045842 6.86933724,67.9937623 L8.20499904,73.4462711 C45.3352506,68.0890104 64.8997267,63.9326271 66.8984272,60.9771212 C69.8964779,56.5438624 84.8661498,21.5210205 90.6641834,2.84217094e-14 L65.4740246,2.84217094e-14 Z" id="Leg" fill="#B28B67"></path>
                        <path d="M17.8143573,63.2804856 L20.1669801,72.0621453 C47.9382449,74.4978581 64.9543123,72.7379025 71.2151822,66.7822787 C77.476052,60.8266549 84.6115956,38.5658953 92.6218128,-5.68434189e-14 L60.5072049,-5.68434189e-14 C55.4321198,31.5802789 52.594817,48.033271 51.9952963,49.3589761 C51.3957757,50.6846813 40.0021294,55.3251844 17.8143573,63.2804856 Z" id="Pant" fill="#FF4133"></path>
                        <g id="Left-Shoe" transform="translate(13.483444, 79.670306) rotate(80.000000) translate(-13.483444, -79.670306) translate(-2.516556, 69.170306)" fill="#E4E4E4">
                            <path d="M1.38007094,13.0899035 C0.803564578,14.6288729 0.515311399,15.7803778 0.515311399,16.5444181 C0.515311399,17.4736721 0.670118263,18.8296847 0.979731991,20.6124559 C2.05773177,20.6124559 11.7458974,20.6124559 30.0442287,20.6124559 C30.799512,18.1155183 30.3635187,16.767502 28.7362489,16.5684071 C27.108979,16.3693122 25.7571784,16.1895454 24.6808468,16.0291067 L11.1719473,10.006772 C10.9120092,9.8908903 10.6073471,10.0076711 10.4914654,10.2676092 C10.489483,10.272056 10.4875637,10.2765307 10.4857081,10.2810319 L9.61736644,12.3874136 L9.61736644,12.3874136 C8.11094021,13.0902762 6.88681249,13.4417075 5.94498329,13.4417075 C5.17977518,13.4417075 4.1230185,13.1326669 2.77471323,12.5145857 L2.77473064,12.5145477 C2.25728817,12.2773451 1.64552748,12.5045244 1.4083249,13.0219669 C1.39810134,13.044269 1.38867735,13.0669289 1.38007094,13.0899035 Z" id="shoe"></path>
                        </g>
                    </g>
                    <g id="Body" transform="translate(79.922204, 93.150571) scale(-1, 1) rotate(21.000000) translate(-79.922204, -93.150571) translate(13.922204, 44.650571)">
                        <path d="M35.0256085,38.3647705 L46.3095841,38.4071186 C33.9363986,66.251355 27.4848278,80.8301559 26.9548716,82.1435211 C25.7624701,85.0985928 28.2857519,89.5991159 29.3648074,92.0176634 C25.8503597,93.5902741 26.2248279,87.7662548 21.7914467,89.8288214 C17.7448619,91.7114365 14.6666349,95.122609 9.99139085,92.2378399 C9.41659707,91.8831745 8.78671674,90.5477952 10.3085873,89.504267 C14.1001217,86.9044575 19.5639526,82.3543224 20.3022022,80.8566102 C21.3089375,78.8142121 26.2167396,64.6502655 35.0256085,38.3647705 L35.0256085,38.3647705 Z M130.730974,28.5045514 C128.451214,30.4050937 126.138077,32.5074903 126.544261,33.5217765 C126.950445,34.5360627 129.070593,34.1586803 129.421817,35.7187387 C129.655967,36.7587777 126.215097,36.9277736 119.099206,36.2257266 L102.59019,42.7708461 L98.9397886,33.6553945 L119.285765,30.8801205 C123.355785,28.6162862 127.100007,27.08371 130.518429,26.2823919 C131.480409,26.2543049 133.010733,26.6040092 130.730974,28.5045514 Z" id="Skin" fill="#997659"></path>
                        <path d="M63.627337,4.98268668 L72.4799985,4.79899563 C76.3633024,24.2199662 89.2538645,35.5738476 115.321777,29.0676574 L121.04322,54.0144936 C96.6152564,59.3692384 74.0814271,51.3732115 67.2974929,24.9795389 C65.5413467,18.1470509 64.0023864,11.0112656 63.627337,4.98268668 Z" id="Clothes-Back" fill="#AFB9C5" transform="translate(92.335279, 30.192852) rotate(5.000000) translate(-92.335279, -30.192852) "></path>
                        <path d="M61.5679395,0 L61.5740462,0.008 L74.9611147,3.07397501 C74.9611147,25.7639728 82.0842003,40.359601 85.891231,56.980266 L86.0570036,57.7148767 L49.9047194,57.713952 C49.3954026,63.5634905 49.0826405,69.575765 48.9196656,75.7507756 L48.9196656,75.7507756 L21.8500462,75.7507756 C27.9841738,43.1129939 40.9312417,17.8627354 60.6912501,0 L60.6912501,0 L61.5679395,0 Z" id="Clothes" fill="#C5CFD6"></path>
                        <path d="M55.6081793,24.8737471 C54.676972,39.2181185 55.2250311,50.1651617 57.2523565,57.7148767 L57.2523565,57.7148767 L49.9046648,57.7145791 C50.8962584,46.3257208 52.6329186,35.5537404 55.4598034,25.3986379 Z" id="Shade" fill-opacity="0.1" fill="#000000"></path>
                    </g>
                </g>
            </g>
        </g>
    </g>
</svg>