<?xml version="1.0" encoding="UTF-8"?>
<svg width="269px" height="199px" viewBox="0 0 269 199" version="1.1" xmlns="http://www.w3.org/2000/svg" xmlns:xlink="http://www.w3.org/1999/xlink">
    <!-- Generator: sketchtool 64 (101010) - https://sketch.com -->
    <title>EB7FEFCB-5718-4B3E-A552-FC0B3F110C68</title>
    <desc>Created with sketchtool.</desc>
    <g id="Page-1" stroke="none" stroke-width="1" fill="none" fill-rule="evenodd">
        <g id="Onboarding-03" transform="translate(-39.000000, -129.000000)">
            <g id="Group-3" transform="translate(26.000000, 115.000000)">
                <g id="A-Human/Standing" transform="translate(220.500000, 139.500000) scale(-1, 1) translate(-220.500000, -139.500000) translate(133.000000, 32.500000)">
                    <g id="Head/Front" transform="translate(41.000000, 0.000000)">
                        <g id="Head" transform="translate(27.000000, 15.500000)" fill="#915B3C">
                            <path d="M19.0716707,4.56696646 C21.9690761,9.96752735 21.624789,23.6664979 17.8801507,24.6317288 C16.3867606,25.0166702 13.2053579,24.0736882 9.96746812,22.1220217 L12,36.5 L0,36.5 L4.13035442,17.2441448 C1.8268291,14.5399375 0.267846898,11.2260181 0.528388167,7.51272694 C1.27916511,-3.18751029 16.1742653,-0.833594429 19.0716707,4.56696646 Z"></path>
                        </g>
                        <path d="M30.2090692,35.15376 C28.7029511,28.4532294 24.4122664,23.8857022 25.0675568,20.8908515 C25.5044171,18.8942844 26.6687809,17.6526894 28.560648,17.1660665 C29.5391037,13.2077504 32.6948243,11.5241243 38.0278096,12.1151882 C46.0272877,13.001784 50.9097238,16.3238794 48.8012409,23.6339389 C46.8630494,23.6339389 44.5232379,22.9329933 41.287765,24.1339389 C40.2611625,24.5149941 39.5269063,25.6966797 39.0849964,27.6789958 L37.6228989,27.6789958 C36.2038718,25.3265286 34.8047019,24.4620611 33.4253893,25.0855933 C32.0460768,25.7091255 31.7325366,27.2236877 32.4847688,29.6292798 L31.764538,35.15376 L30.2090692,35.15376 Z" id="Hair" fill="#191847"></path>
                    </g>
                    <g id="Bottom/Skinny-Jeans-1" transform="translate(0.000000, 93.500000)">
                        <g id="Seat" transform="translate(5.000000, 21.000000)" fill="#C5CFD6">
                            <path d="M87,0 C91.418278,-8.11624501e-16 95,3.581722 95,8 L95,54 C95,58.418278 91.418278,62 87,62 L29.5,62 C25.081722,62 21.5,58.418278 21.5,54 L21.5,8 C21.5,3.581722 25.081722,8.11624501e-16 29.5,0 L87,0 Z M79,14 L37.5,14 C36.3954305,14 35.5,14.8954305 35.5,16 L35.5,16 L35.5,46 C35.5,47.1045695 36.3954305,48 37.5,48 L37.5,48 L79,48 C80.1045695,48 81,47.1045695 81,46 L81,46 L81,16 C81,14.8954305 80.1045695,14 79,14 L79,14 Z"></path>
                        </g>
                        <path d="M149.579482,80.5 C139.721547,68.4620874 133.051434,59.5377173 129.56914,53.7268897 C123.606608,43.7773421 118.726561,34.9240823 117.186539,31.542177 C113.514161,23.4775898 125.640948,19.7013091 128.385515,23.4629 C132.539527,29.1562173 141.411022,47.0714837 155,77.2086993 L149.579482,80.5 Z" id="LegLower" fill="#B28B67"></path>
                        <path d="M129.378783,77 L111.032599,30.8183885 C107.108715,22.3997886 126.057879,16.8660382 128.941637,20.7838859 C135.488661,29.678613 151.049423,64.7670214 153,67.4170577 L129.378783,77 Z" id="LegLower" fill="#2F3676"></path>
                        <g id="Lower-Leg" transform="translate(101.360474, 52.477538) rotate(39.000000) translate(-101.360474, -52.477538) translate(93.360474, 24.477538)" fill="#915B3C">
                            <path d="M1.4052309,52.9775167 C0.901912685,46.677209 -0.0331901738,24.8668563 0.902418245,14.771652 C1.17127458,11.8706951 1.45453278,9.06593522 1.73998893,6.43482163 C2.58846561,-1.38577895 17.0895139,-1.1385648 15.9379489,6.29139769 C13.0700968,24.7949408 8.02235021,50.7265851 7.66055927,52.9672252 C7.15349382,56.1075779 1.7215507,56.9370636 1.4052309,52.9775167 Z" id="LegLower"></path>
                        </g>
                        <g id="Right-Shoe" transform="translate(94.966506, 70.125000) rotate(30.000000) translate(-94.966506, -70.125000) translate(79.466506, 60.125000)" fill="#E4E4E4">
                            <path d="M1.33906502,12.7009645 C0.77968834,14.1942066 0.5,15.3114969 0.5,16.0528354 C0.5,16.9544785 0.650207102,18.2702 0.950621307,20 C1.99659059,20 11.3968926,20 29.1515274,20 C29.884369,17.5772536 29.4613303,16.2692908 27.8824114,16.0761116 C26.3034925,15.8829323 24.9918578,15.7085069 23.9475072,15.5528354 L10.8399963,9.70944173 C10.5877817,9.59700322 10.292172,9.7103141 10.1797335,9.96252867 C10.17781,9.96684337 10.1759477,9.9711851 10.1741473,9.97555258 L9.33160655,12.0193475 L9.33160655,12.0193475 C7.86994061,12.7013261 6.68218528,13.0423154 5.76834057,13.0423154 C5.02586901,13.0423154 4.00051164,12.7424572 2.69226844,12.142741 L2.69228533,12.1427041 C2.19021758,11.9125495 1.59663408,12.1329787 1.36647948,12.6350464 C1.35655969,12.6566858 1.34741571,12.6786725 1.33906502,12.7009645 Z" id="shoe"></path>
                        </g>
                        <g id="Right-Shoe" transform="translate(144.000000, 66.000000)" fill="#E4E4E4">
                            <path d="M1.33906502,12.7009645 C0.77968834,14.1942066 0.5,15.3114969 0.5,16.0528354 C0.5,16.9544785 0.650207102,18.2702 0.950621307,20 C1.99659059,20 11.3968926,20 29.1515274,20 C29.884369,17.5772536 29.4613303,16.2692908 27.8824114,16.0761116 C26.3034925,15.8829323 24.9918578,15.7085069 23.9475072,15.5528354 L10.8399963,9.70944173 C10.5877817,9.59700322 10.292172,9.7103141 10.1797335,9.96252867 C10.17781,9.96684337 10.1759477,9.9711851 10.1741473,9.97555258 L9.33160655,12.0193475 L9.33160655,12.0193475 C7.86994061,12.7013261 6.68218528,13.0423154 5.76834057,13.0423154 C5.02586901,13.0423154 4.00051164,12.7424572 2.69226844,12.142741 L2.69228533,12.1427041 C2.19021758,11.9125495 1.59663408,12.1329787 1.36647948,12.6350464 C1.35655969,12.6566858 1.34741571,12.6786725 1.33906502,12.7009645 Z" id="shoe"></path>
                        </g>
                        <path d="M104.431045,33.1250261 C89.1826361,30.6408676 78.9690447,28.9422096 73.7902712,28.0290521 C59.0287255,25.4261933 54.7241332,17.4826653 57.269238,0.151114329 L84.4671351,0.151114329 C88.0663396,1.19049681 103.105213,7.61874024 129.583754,19.4358446 C134.347766,21.8007667 133.46055,28.7737491 132.589774,31.0710384 C132.55426,31.1647306 124.523049,44.9265074 108.49614,72.3563688 L86.2471136,58.1827452 L104.472829,34.7951938 C104.954153,33.8257437 104.940225,33.2690211 104.431045,33.1250261 Z" id="Leg-and-Butt" fill="#5C63AB"></path>
                    </g>
                    <g id="Body/Long-Sleeve-1" transform="translate(11.000000, 39.000000)">
                        <path d="M34.153964,48.5099457 L44.6026599,48.5510356 C38.1510723,69.3778695 34.6681737,80.4284571 34.153964,81.7027984 C32.9969923,84.5700664 35.4453001,88.9368659 36.4922937,91.2835513 C33.0822704,92.8094351 33.4456121,87.1584644 29.1439595,89.1597461 C25.2176105,90.9864232 22.2308465,94.2962399 17.6945176,91.4971857 C17.1368026,91.1530584 16.5256379,89.8573572 18.0022892,88.8448352 C21.6811662,86.3222735 26.9826508,81.9073362 27.6989648,80.4541254 C28.675787,78.4724129 30.8274534,67.824353 34.153964,48.5099457 L34.153964,48.5099457 Z M95.3906024,48.1057427 L111.339738,59.817542 C115.665472,60.9847812 119.279483,62.4370237 122.181771,64.1742698 C122.867341,64.7989723 123.695918,66.0640987 120.85269,65.8454532 C118.009462,65.6268077 115.00898,65.5246959 114.61667,66.494477 C114.22436,67.464258 115.944927,68.6240098 115.151897,69.9324984 C114.623211,70.8048241 112.125483,68.6174997 107.658715,63.3705252 L91.8648869,56.8212236 L95.3906024,48.1057427 Z" id="Skin" fill="#915B3C"></path>
                        <path d="M61.3658669,6.79015538 L65.6083427,5.67457005 C82.79675,18.0814181 91.6808546,44.0281704 112.498311,56.3636799 L108.294865,62.6202697 C73.9446192,61.3858206 62.6916571,29.7734509 61.3658669,6.79015538 Z" id="Coat-Back" fill="#E87613" transform="translate(86.932089, 34.147420) rotate(5.000000) translate(-86.932089, -34.147420) "></path>
                        <path d="M45,59 C62.3358779,59 75.0877864,59 83.2557254,59 C85.0038169,59 84.6744224,56.4758186 84.4217252,55.2021028 C81.5052939,40.5018831 70.1206521,24.6557577 70.1206521,3.73036515 L59.0859001,2 C49.9587425,16.6792034 46.8024132,34.752275 45,59 Z" id="Shirt" fill="#DDE3E9"></path>
                        <path d="M58.2550157,2 C58.6242477,2 58.9627797,2.02288087 59.2706118,2.0686426 L62.7357936,2.26736997 C72.646993,35.8575972 75.3804426,58.2684739 70.9361425,69.5 L70.9361425,69.5 L40.8255743,69.5007758 C39.0416953,73.6603707 37.3346693,77.1601121 35.7044963,80 L35.7044963,80 L27.5,80 C26.727837,55.0333975 32.6637188,33.8429541 45.3076454,16.4286698 C43.7053439,15.9687873 42.4358359,14.8942202 41.5,13.2055951 C37.4667785,5.92803789 38.9233635,1.92120361 43.2335982,0.604134552 C47.5438329,-0.712934504 51.3876596,2 58.2550157,2 Z" id="Coat-Front" fill="#FF9B21"></path>
                        <path d="M52,69.5 L40.8255743,69.5007758 C42.9066733,64.6481324 45.0923683,58.8974355 47.3826595,52.2486851 C48.3294951,60.1717118 49.8686483,65.9223128 52,69.5 Z" id="Shade" fill-opacity="0.1" fill="#000000"></path>
                    </g>
                </g>
                <g id="ðŸ˜Human/Standing">
                    <g id="Head/Front" transform="translate(41.000000, 0.000000)">
                        <g id="Head" transform="translate(27.000000, 15.500000)" fill="#B28B67">
                            <path d="M19.0716707,4.56696646 C21.9690761,9.96752735 21.624789,23.6664979 17.8801507,24.6317288 C16.3867606,25.0166702 13.2053579,24.0736882 9.96746812,22.1220217 L12,36.5 L0,36.5 L4.13035442,17.2441448 C1.8268291,14.5399375 0.267846898,11.2260181 0.528388167,7.51272694 C1.27916511,-3.18751029 16.1742653,-0.833594429 19.0716707,4.56696646 Z"></path>
                        </g>
                        <path d="M39.5660292,14.8102856 C42.9329805,15.0990819 45.9395066,16.1257566 46.7915803,16.7354735 C46.7915803,19.9230856 46.1739351,20.8688408 40.8984028,20.785476 C39.6024506,21.4698929 38.6061113,22.6483317 37.5684493,24.1932785 C38.0268523,30.592678 39.2419602,33.7923468 41.2128957,33.7923468 C44.1692989,33.7923468 46.677597,31.9155222 47.9747957,31.9155222 C48.9204096,31.9155222 48.709283,33.0988703 48.0824807,33.9762388 C47.5653487,34.7000961 45.0469587,35.3978079 45.0469587,36.5200297 C45.0469587,37.6422516 47.0366956,36.7740504 47.0366956,37.4396182 C47.0366956,38.5405486 47.3863889,40.6104947 45.4756121,40.6104947 C43.5418421,40.6104947 37.9973812,39.9057918 37.0472108,37.0357361 C36.4340937,35.1837731 36.0376358,31.3464673 35.8578372,25.5238185 C35.740895,25.5071976 35.621288,25.5 35.5,25.5 C33.8431458,25.5 32.5,26.8431458 32.5,28.5 C32.5,29.3411091 32.8461459,30.1013716 33.4037575,30.646107 C32.7095982,31.6259081 31.9316447,32.6494416 31.0401931,33.7055951 C27.6912027,31.6963371 25.2060613,25.8144857 28.4802431,20.1641392 C29.3852372,17.3961223 31.4340173,15.9176204 33.8536759,15.2311045 C35.8137241,14.4112102 37.8484396,14.3187664 39.5660292,14.8102856 Z" id="Hair" fill="#191847"></path>
                    </g>
                    <g id="Bottom/Skinny-Jeans-1" transform="translate(0.000000, 93.500000)">
                        <polygon id="Leg" fill="#191847" points="64 4.97379915e-14 82.1274811 63.6134546 95.3534786 110.5 105 110.5 90.945487 4.97379915e-14"></polygon>
                        <path d="M59.1521711,0 C58.7328842,32.7871122 57.3031237,50.6700941 56.8628896,53.6489458 C56.4226556,56.6277975 49.7660859,75.5781489 36.8931807,110.5 L46.8863234,110.5 C63.2745166,76.9984508 72.4228254,58.0480994 74.3312497,53.6489458 C76.2396739,49.2497922 82.1292574,31.3668102 91,0 L59.1521711,0 Z" id="Leg" fill="#2F3676"></path>
                        <g id="Left-Shoe" transform="translate(36.000000, 99.500000)" fill="#191847">
                            <path d="M0,20 L0.5,9.5 L11,9.5 C15.9788016,13 22.4788016,15.8333333 30.5,18 L30.5,20 L11.5,20 L5,19 L5,20 L0,20 Z" id="Shoe"></path>
                        </g>
                        <g id="Right-Shoe" transform="translate(94.000000, 99.500000)" fill="#191847">
                            <path d="M0,20 L0.5,9.5 L11,9.5 C15.9788016,13 22.4788016,15.8333333 30.5,18 L30.5,20 L11.5,20 L5,19 L5,20 L0,20 Z" id="Shoe"></path>
                        </g>
                    </g>
                    <g id="Body/Long-Sleeve-1" transform="translate(11.000000, 40.000000)">
                        <path d="M26.8335703,39.7679595 L35.6894595,41.0540672 C26.1834474,61.6788296 21.0871617,72.5863985 20.4006022,73.7767738 C18.8558435,76.4551184 20.6725835,81.1201591 21.3827923,83.5897201 C17.7935932,84.6261706 18.9398619,79.0807621 14.4015481,80.4638932 C10.2591858,81.726351 6.84085138,84.5882796 2.73822274,81.1851306 C2.23382865,80.7667334 1.80893846,79.3985842 3.41213496,78.6014261 C7.40628208,76.6154146 13.2706135,72.9812672 14.1822043,71.6418906 C15.4253212,69.8154113 19.6424432,59.1907676 26.8335703,39.7679595 L26.8335703,39.7679595 Z M95.1794362,45.3050108 L110.272747,58.1008362 C114.506521,59.56698 118.010425,61.2677856 120.784459,63.2032532 C121.424782,63.874257 122.16309,65.1941001 119.34204,64.7776537 C116.52099,64.3612073 113.53494,64.0500412 113.075937,64.9900937 C112.616934,65.9301462 114.25241,67.2070936 113.370036,68.4570758 C112.781787,69.2903973 110.442724,66.9341685 106.352847,61.3883894 L91.054348,53.7533197 L95.1794362,45.3050108 Z" id="Skin" fill="#B28B67"></path>
                        <path d="M61.4896359,5.6052711 L66.7980613,3.31921593 C75.834178,21.194804 88.4615323,38.1505073 108.263765,51.6730174 L104.384144,59.955964 C87.3079221,51.8106972 71.2853058,45.7245594 63.7915351,31.9160993 C61.2764319,27.2816231 61.8227902,11.380682 61.4896359,5.6052711 Z" id="Coat-Back" fill="#C5CFD6" transform="translate(84.876701, 31.637590) rotate(5.000000) translate(-84.876701, -31.637590) "></path>
                        <path d="M45,56 C60.719163,57.6666667 73.0918687,57.6666667 82.1181168,56 C83.2364085,55.7935112 83.4128336,53.9211942 82.8942272,52.6504829 C74.8181764,32.8622014 69.2801509,15.5958133 69.2801509,1.85131867 C67.7982972,2.5983941 65.2049136,2.71035269 61.5,2.18719444 C51.5431008,16.3513381 46.9662689,32.6030723 45,56 Z" id="Shirt" fill="#323337"></path>
                        <path d="M59.039311,0.740661894 L59.0243106,0.999661894 L63.1742124,1 C64.1307227,6.62561116 67.1270169,82.0994435 76.3149741,108.032422 L76.5952966,108.802983 L25.6926592,108.802983 C26.796211,85.7436827 35.5013891,58.0438435 44.319834,34.8643402 C36.5219506,42.0002191 29.7257788,54.0908084 23.9309293,71.1363435 L23.9309293,71.1363435 L14.3963106,68.6888239 C21.485498,38.1410335 36.0607542,15.688163 58.1220793,1.33021242 L58.2657913,1 L58.6343106,0.999661894 L59.039311,0.740661894 Z" id="Coat-Front" fill="#DDE3E9"></path>
                    </g>
                </g>
            </g>
        </g>
    </g>
</svg>