<svg id="Layer_5" enable-background="new 0 0 64 64" height="512" viewBox="0 0 64 64" width="512" xmlns="http://www.w3.org/2000/svg"><g><g><path d="m35 5h18v5h-18z" fill="#f0bc5e"/></g><g><path d="m5 13h18v5h-18z" fill="#f0bc5e"/></g><g><path d="m29.142 19h-2.284c-5.987 0-10.858 4.871-10.858 10.857 0 1.268.216 2.516.644 3.707l.356 1.436c0-1.657 1.343-3 3-3h1s4-1 7-4c3 3 7 4 7 4h1c1.657 0 3 1.343 3 3l.356-1.436c.428-1.191.644-2.439.644-3.707 0-5.986-4.871-10.857-10.858-10.857z" fill="#f0bc5e"/></g><g><path d="m45.378 26.957c.362-.608.622-.958.622-.958h7c1.105 0 2 .895 2 2v2c1.105 0 2 .895 2 2v.172c0 .53-.211 1.039-.586 1.414l-1.414 1.414v5.228l3.71-2.65c2.686-1.917 4.29-5.033 4.29-8.334 0-5.648-4.595-10.243-10.243-10.243h-7.757c-2.206 0-4 1.794-4 4 0 1.656.941 2.921 2.649 3.561.644.242 1.279.348 1.729.396z" fill="#f0bc5e"/></g><g><circle cx="48" cy="30.999" r="1"/><path d="m32 37h-2c0 1.103-.897 2-2 2s-2-.897-2-2h-2c0 2.206 1.794 4 4 4s4-1.794 4-4z"/><path d="m14 24.764v-1.764h4.449c.622-.761 1.348-1.431 2.151-2h-8.6v3.764c0 .221-.349.303-.447.105l-1.935-3.869h-5.618c-.551 0-1-.448-1-1v-8c0-.552.449-1 1-1h20c.551 0 1 .448 1 1v7.171c.605-.105 1.223-.171 1.858-.171h.142v-7c0-1.654-1.346-3-3-3h-20c-1.654 0-3 1.346-3 3v8c0 1.654 1.346 3 3 3h4.382l1.382 2.764c.381.763 1.148 1.236 2 1.236 1.233 0 2.236-1.003 2.236-2.236z"/><circle cx="31" cy="34" r="1"/><circle cx="25" cy="34" r="1"/><path d="m57.924 40.795-1.924-.55v-4.832l1.121-1.121c.567-.566.879-1.32.879-2.121v-.172c0-1.304-.836-2.416-2-2.829v-1.171c0-1.654-1.346-3-3-3h-7.5l-.3.4c-.131.174-3.2 4.327-3.2 9.6v.721l3.002 1.001c.035 1.115.501 2.196 1.291 2.985.487.487 1.074.828 1.708 1.043v1.836l-1.536 1.536c-.12.12-.232.247-.338.379l-2.127-2.833v-1.635c0-.934-.363-1.81-1.022-2.469-.889-.889-2.161-1.215-3.339-.91.233-.515.361-1.077.361-1.653 0-2.206-1.794-4-4-4h-.865c-.613-.174-3.923-1.202-6.428-3.707l-.707-.707-.707.707c-2.505 2.505-5.816 3.533-6.428 3.707h-.865c-2.206 0-4 1.794-4 4s1.794 4 4 4h.263c.542 2.095 1.909 3.856 3.737 4.918v1.319l-5.842 1.593c-3.037.827-5.158 3.605-5.158 6.753v9.417h30v-9.149l.179.223c.523.654 1.141 1.204 1.821 1.65v7.276h18v-15.475c0-3.109-2.087-5.877-5.076-6.73zm-10.924-4.21v-1.307l-2.978-.993c.208-3.412 1.848-6.266 2.507-7.286h6.471c.551 0 1 .448 1 1v3h1c.551 0 1 .448 1 1v.172c0 .263-.107.521-.293.707l-1.707 1.707v6l-3 3.001-1-1.001v-1.586h2v-2h-2.586c-.645 0-1.251-.251-1.707-.707-.449-.449-.707-1.071-.707-1.707zm.878 8.95 1.122-1.121 2 2.001 4.291-4.292 2.084.596c.87.248 1.625.732 2.223 1.359-.255-.047-.516-.078-.785-.078-.702 0-1.396.18-2.009.521l-7.527 4.181-1.881-2.507c.134-.24.289-.467.482-.66zm-6.315-6.557c.282.282.437.656.437 1.054v1.454l-4.029 2.878-2.662-3.327c-.2-.249-.31-.563-.31-.883v-.154c0-.378.147-.732.414-1l.587-.586c.267-.268.622-.414 1-.414s.733.146 1 .414l.802.802 1.039-.518c.575-.288 1.266-.177 1.722.28zm-10.171 8.165.91.248-.916 4.58-2.065-2.065zm.608-1.907v-1.316c.69-.399 1.311-.908 1.858-1.497l3.397 4.246zm6-10.236c0 .395-.124.774-.338 1.099-.552-.102-1.123-.071-1.662.088l-.001-3.187h.001c1.103 0 2 .897 2 2zm-20 0c0-1.103.897-2 2-2v4c-1.103 0-2-.897-2-2zm4 2v-4.257c1.235-.412 3.76-1.422 6-3.376 2.24 1.954 4.765 2.964 6 3.376v4.257c0 .218-.027.432-.05.646-.609.638-.95 1.469-.95 2.354v.153c0 .042.009.084.011.126-1.104 1.681-2.992 2.721-5.011 2.721-3.309 0-6-2.691-6-6zm6 8c.682 0 1.353-.092 2-.261v.928l-2 2.666-2-2.666v-.931c.641.167 1.308.264 2 .264zm-3.392 2.143 2.072 2.763-2.065 2.065-.916-4.58zm16.392 13.857h-4v-6h-2v6h-14v-6h-2v6h-4v-7.417c0-2.249 1.515-4.232 3.685-4.824l3.079-.84 1.622 8.109 4.614-4.614 4.614 4.614 1.622-8.109 5.14 1.402 1.624 2.03zm-1.778-15.073 3.564-2.546 4.893 6.524-1.387 1.388 1.415 1.414 1.405-1.406c.328-.327.701-.608 1.109-.836l7.554-4.196c.317-.176.676-.269 1.087-.269 1.179 0 2.138.959 2.138 2.138 0 .782-.427 1.501-1.114 1.876l-7.843 4.278c-.849.463-1.809.708-2.776.708-1.771 0-3.42-.793-4.526-2.176zm7.778 15.073v-4.345c.726.22 1.486.345 2.267.345 1.301 0 2.592-.329 3.734-.952l7.843-4.278c.055-.03.104-.068.157-.1v9.33z"/><path d="m27 57h2v2h-2z"/><path d="m27 53h2v2h-2z"/><path d="m35 5h2v2h-2z"/><path d="m39 5h14v2h-14z"/><path d="m35 9h18v2h-18z"/><path d="m34 15h1.382l1.382 2.764c.381.763 1.148 1.236 2 1.236 1.233 0 2.236-1.003 2.236-2.236v-1.764h13c1.654 0 3-1.346 3-3v-8c0-1.654-1.346-3-3-3h-20c-1.654 0-3 1.346-3 3v8c0 1.654 1.346 3 3 3zm-1-11c0-.552.449-1 1-1h20c.551 0 1 .448 1 1v8c0 .552-.449 1-1 1h-15v3.764c0 .221-.349.304-.447.105l-1.935-3.869h-2.618c-.551 0-1-.448-1-1z"/><path d="m5 13h2v2h-2z"/><path d="m9 13h14v2h-14z"/><path d="m5 17h18v2h-18z"/></g></g></svg>